<?xml version="1.0" standalone="no"?>
<!DOCTYPE svg PUBLIC "-//W3C//DTD SVG 20010904//EN"
 "http://www.w3.org/TR/2001/REC-SVG-20010904/DTD/svg10.dtd">
<svg version="1.0" xmlns="http://www.w3.org/2000/svg"
 width="1080.000000pt" height="1080.000000pt" viewBox="0 0 1080.000000 1080.000000"
 preserveAspectRatio="xMidYMid meet">

<g transform="translate(0.000000,1080.000000) scale(0.100000,-0.100000)"
fill="#000000" stroke="none">
<path d="M2522 6355 c-16 -13 -34 -42 -40 -62 -56 -208 -105 -392 -168 -628
-42 -154 -106 -395 -144 -535 -146 -541 -160 -597 -160 -623 0 -14 12 -39 26
-56 22 -27 33 -31 73 -31 84 0 79 -13 210 480 38 146 101 382 140 525 242 903
233 864 211 906 -13 24 -61 49 -94 49 -13 0 -38 -11 -54 -25z"/>
<path d="M7780 5944 c-41 -22 -60 -53 -60 -96 0 -39 6 -46 211 -247 l211 -206
-201 -200 c-110 -110 -206 -212 -212 -227 -18 -44 -3 -96 34 -118 42 -26 86
-25 123 3 17 12 137 128 267 257 l237 235 0 50 0 50 -247 243 c-227 222 -289
274 -325 271 -7 -1 -24 -7 -38 -15z"/>
<path d="M1705 5938 c-11 -6 -127 -118 -257 -249 -253 -254 -267 -274 -236
-332 13 -26 454 -476 492 -502 35 -25 75 -18 112 19 39 39 45 85 18 125 -15
21 -105 114 -302 313 l-86 88 202 203 c177 178 202 207 202 235 0 83 -78 137
-145 100z"/>
<path d="M2868 5914 c-5 -4 -8 -241 -8 -526 l0 -518 100 0 100 0 0 205 0 205
58 0 c32 0 65 -6 74 -12 9 -7 70 -95 137 -195 66 -100 129 -187 140 -193 11
-5 63 -10 116 -10 l96 0 -127 188 c-70 103 -142 203 -161 223 l-33 35 49 24
c154 72 220 257 145 407 -36 71 -90 115 -182 144 -57 18 -99 22 -282 26 -118
3 -218 2 -222 -3z m450 -173 c74 -38 102 -132 63 -216 -37 -80 -90 -105 -226
-105 l-95 0 0 176 0 177 108 -5 c85 -4 116 -9 150 -27z"/>
<path d="M6072 5841 c-8 -4 -23 -55 -34 -112 -11 -57 -24 -107 -30 -110 -6 -4
-32 -10 -59 -13 l-49 -7 0 -48 c0 -55 7 -61 71 -61 l39 0 0 -231 c0 -153 4
-246 12 -272 17 -58 66 -102 128 -117 71 -17 179 2 229 39 l23 17 -29 48 c-26
43 -30 47 -58 41 -127 -26 -122 -36 -127 248 l-5 227 154 0 153 0 0 -227 c0
-136 5 -244 11 -268 25 -89 120 -143 228 -131 57 7 133 36 145 55 4 6 -5 31
-20 57 -24 40 -30 45 -53 40 -81 -19 -89 -18 -110 3 -20 20 -21 30 -21 246 l0
225 100 0 100 0 0 65 0 65 -100 0 -100 0 0 115 0 115 -52 0 c-29 0 -58 -4 -64
-8 -9 -5 -54 -190 -54 -218 0 -2 -72 -4 -160 -4 l-160 0 0 115 0 115 -47 0
c-27 0 -54 -4 -61 -9z"/>
<path d="M3960 5619 c-163 -32 -266 -158 -278 -343 -14 -218 92 -368 286 -406
176 -35 338 42 409 195 26 55 28 70 28 180 0 111 -2 125 -29 182 -70 152 -234
228 -416 192z m188 -156 c50 -37 76 -98 80 -194 9 -193 -63 -283 -215 -266
-56 6 -91 31 -123 88 -22 39 -25 55 -25 149 0 92 3 111 25 155 34 68 90 98
173 93 37 -3 67 -11 85 -25z"/>
<path d="M4717 5620 c-185 -47 -257 -237 -133 -355 33 -32 64 -48 153 -78 115
-40 153 -66 153 -106 0 -89 -120 -119 -239 -60 -74 37 -94 33 -129 -30 l-22
-41 38 -24 c69 -43 131 -60 227 -60 73 0 100 4 140 22 114 52 171 158 144 267
-18 70 -73 113 -207 159 -149 51 -182 90 -129 152 35 40 110 44 197 11 36 -13
70 -22 77 -20 19 7 56 72 50 87 -3 8 -34 28 -69 45 -70 34 -182 48 -251 31z"/>
<path d="M5423 5620 c-226 -48 -336 -317 -228 -558 33 -74 92 -133 170 -169
53 -24 71 -27 160 -27 78 0 112 5 156 23 62 24 139 75 139 92 0 5 -12 26 -27
45 -34 41 -56 43 -125 8 -91 -46 -199 -43 -263 8 -32 25 -62 84 -71 137 l-7
41 240 0 c172 0 242 3 251 12 19 19 15 131 -8 192 -33 86 -71 130 -142 165
-71 35 -169 47 -245 31z m185 -147 c32 -24 57 -66 66 -110 l6 -33 -175 0 c-96
0 -175 2 -175 4 0 2 7 23 15 47 30 85 86 121 178 116 38 -2 66 -10 85 -24z"/>
<path d="M7173 5619 c-81 -15 -203 -83 -203 -111 0 -6 11 -26 26 -45 31 -41
53 -42 136 -3 45 22 78 30 117 30 47 0 57 -4 85 -32 26 -26 34 -45 40 -86 4
-29 4 -57 1 -62 -3 -6 -23 -10 -43 -10 -118 0 -271 -45 -332 -97 -50 -43 -70
-85 -70 -148 0 -93 62 -166 156 -185 92 -19 189 4 269 65 l34 27 17 -41 c17
-43 47 -57 110 -49 l29 3 0 275 0 275 -28 57 c-59 121 -181 170 -344 137z
m207 -489 c0 -70 -19 -97 -93 -130 -71 -33 -164 -19 -181 25 -15 39 -6 86 20
110 15 14 30 25 33 25 3 1 29 7 56 15 28 7 76 14 108 14 l57 1 0 -60z"/>
</g>
</svg>
